<?xml version="1.0" encoding="utf-8"?>
<!-- Generator: Adobe Illustrator 25.3.1, SVG Export Plug-In . SVG Version: 6.00 Build 0)  -->
<svg version="1.1" id="Layer_1" xmlns="http://www.w3.org/2000/svg" xmlns:xlink="http://www.w3.org/1999/xlink" x="0px" y="0px"
	 viewBox="0 0 797.27 202.22" style="enable-background:new 0 0 797.27 202.22;" xml:space="preserve">
<style type="text/css">
	.st0{fill:none;}
	.st1{fill:#D3AA6A;}
	.st2{fill:#FF9D00;}
</style>
<polygon points="246.04,113.22 226.52,113.22 218.39,90.13 194.8,22.46 171.06,90.13 162.92,113.22 143.56,113.22 184.07,0 
	205.53,0 "/>
<polygon points="522.42,113.22 502.9,113.22 494.77,90.13 471.18,22.46 447.43,90.13 439.3,113.22 419.93,113.22 460.45,0 481.91,0 
	"/>
<polygon points="315.24,0 293.54,0 293.54,113.22 372.44,113.22 372.44,96.88 315.24,96.88 "/>
<polygon points="658.84,113.22 622.67,56.93 658.19,0 632.56,0 610.5,37.96 586.01,0 559.89,0 596.07,56.12 560.38,113.22 
	586.01,113.22 608.23,75.1 632.72,113.22 "/>
<polygon points="771.97,0 747.8,51.74 723.47,0 697.84,0 736.28,73.8 736.28,113.22 758.99,113.22 758.99,73.8 797.27,0 "/>
<path class="st0" d="M90.35,38.22c-7.67,6.02-19.18,13.67-32.43,21.32C48.55,64.95,39.63,69.6,32,73.15
	c-1.66-2.47-2.95-5.18-3.81-8.08c5.95-4.14,13.05-8.69,20.84-13.29c1.09-0.64,2.19-1.28,3.3-1.92c0.4-0.23,0.79-0.46,1.19-0.68
	c8.9-5.11,17.36-9.5,24.66-12.9c1.11,1.17,2.12,2.42,3.02,3.76L90.35,38.22z"/>
<path class="st0" d="M75.65,33.88c-7.46,3.52-15.99,8-24.95,13.16c-0.15,0.09-0.3,0.17-0.45,0.26c-0.03,0.02-0.05,0.03-0.07,0.04
	c-8.5,4.93-16.24,9.83-22.78,14.34c-0.28-1.64-0.44-3.33-0.44-5.07c0-4.14,0.84-7.99,2.33-11.54c2.24-5.3,6.01-9.86,10.76-13.06
	c4.74-3.19,10.38-5.05,16.56-5.05c4.13,0,8,0.82,11.53,2.33C70.87,30.43,73.4,31.99,75.65,33.88z"/>
<path d="M65.93,59.95v7.47h10.03c3.61,2.14,4.49,7.38,1.29,10.48c-1.25,1.22-2.61,2.33-4.07,3.31c-4.75,3.19-10.38,5.04-16.57,5.04
	c-4.12,0-8-0.82-11.54-2.32c-4.29-1.8-8.06-4.63-11.05-8.14c-6.11,2.86-11.46,5.06-15.68,6.44c-3.16,1.02-5.66,1.61-7.6,1.62
	c-0.65-0.01-1.25-0.07-1.85-0.27c-0.58-0.2-1.21-0.61-1.59-1.27c-0.25-0.44-0.36-0.93-0.36-1.39c0.03-1.12,0.49-1.99,1.12-2.95
	c0.64-0.96,1.52-1.97,2.63-3.09c2.21-2.24,5.33-4.87,9.22-7.82c2.25-1.7,4.77-3.51,7.49-5.38c-0.28-1.64-0.44-3.33-0.44-5.07
	c0-4.14,0.84-7.99,2.33-11.54c2.24-5.3,6.01-9.86,10.76-13.06c4.74-3.19,10.38-5.05,16.56-5.05c4.13,0,8,0.82,11.53,2.33
	c2.73,1.14,5.26,2.7,7.51,4.59c6.34-2.99,11.91-5.3,16.25-6.71c3.17-1.02,5.66-1.61,7.61-1.62c0.64,0,1.25,0.06,1.84,0.27
	c0.59,0.2,1.22,0.61,1.6,1.27c0.25,0.44,0.36,0.93,0.36,1.38c-0.03,1.12-0.5,2-1.13,2.96c-0.64,0.95-1.52,1.97-2.62,3.09
	c-0.74,0.74-1.59,1.54-2.53,2.37l11.74-2.33c-4.31-10.17-11.47-18.79-20.5-24.89C79.25,3.57,68.28-0.01,56.61,0
	c-7.78,0-15.26,1.59-22.04,4.45c-10.18,4.32-18.79,11.46-24.9,20.5C3.57,33.97,0,44.93,0,56.61c0,7.78,1.59,15.25,4.45,22.04
	c4.31,10.17,11.48,18.79,20.5,24.89c9.01,6.1,19.98,9.69,31.66,9.67c7.77,0,15.26-1.58,22.04-4.45
	c10.17-4.31,18.79-11.46,24.89-20.49c6.11-9.02,9.69-16.65,9.69-28.32H65.93z M75.68,24.38l0.67-2.46l1.54,2.03l2.55-0.12l-1.45,2.1
	l0.91,2.38l-2.45-0.73l-1.99,1.6l-0.06-2.55l-2.13-1.4L75.68,24.38z M10.47,49.78l2.4,0.86l2.07-1.5l-0.07,2.55l2.06,1.5l-2.44,0.72
	l-0.79,2.43l-1.45-2.1H9.7l1.55-2.03L10.47,49.78z"/>
<path d="M99.94,28.82c-0.11,0.25-0.3,0.61-0.61,1.03c-0.92,1.28-2.69,3.1-5.12,5.2c-1.14,0.99-2.44,2.06-3.86,3.17l-9.15,1.82
	c-0.9-1.34-1.91-2.59-3.02-3.76c1.32-0.61,2.61-1.2,3.84-1.75c4.19-1.85,7.88-3.3,10.89-4.27c2.99-0.99,5.34-1.47,6.6-1.46
	C99.68,28.8,99.82,28.81,99.94,28.82z"/>
<path d="M32,73.15c-1.29,0.6-2.56,1.18-3.77,1.71c-4.19,1.85-7.89,3.3-10.89,4.28c-2.99,0.98-5.35,1.47-6.6,1.46
	c-0.17,0-0.31-0.01-0.43-0.03c0.11-0.25,0.3-0.6,0.61-1.02c0.91-1.29,2.68-3.1,5.12-5.21c3.07-2.67,7.22-5.83,12.15-9.27
	C29.05,67.97,30.34,70.68,32,73.15z"/>
<path d="M97.03,36.89c-1.86,1.66-4.1,3.48-6.69,5.44c-7.76,5.88-18.54,12.95-30.8,20.02c-9.18,5.3-17.93,9.88-25.52,13.44
	c-0.71-0.84-1.38-1.7-2-2.61c-0.01-0.01-0.01-0.02-0.02-0.03c7.63-3.55,16.55-8.2,25.92-13.61c13.25-7.65,24.76-15.3,32.43-21.32
	L97.03,36.89z"/>
<polygon class="st1" points="9.73,80.91 9.7,80.93 9.73,80.91 "/>
<polygon class="st1" points="10.11,80.69 10.11,80.69 10.11,80.69 "/>
<polygon points="52.86,51.24 53.76,53.63 51.32,52.89 49.33,54.49 49.27,51.94 49.03,51.78 47.13,50.54 49.54,49.7 50.18,47.34 
	50.21,47.24 50.25,47.3 51.76,49.27 53.52,49.18 54.31,49.14 "/>
<path class="st2" d="M617.61,178.29l21.68-22.76h-8.2l-18.41,20.42V139.3h-5.86v61.92h5.86v-20.5l18.82,20.5h7.95L617.61,178.29z
	 M588.66,159.76c-3.45-3.38-7.92-5.06-13.38-5.06c-3.46,0-6.56,0.74-9.29,2.21c-2.73,1.48-4.83,3.62-6.28,6.4v-7.78h-5.85v45.69
	h5.85v-24.94c0-5.41,1.31-9.51,3.94-12.3c2.62-2.79,6.13-4.18,10.54-4.18c4.29,0,7.68,1.31,10.17,3.93
	c2.48,2.62,3.72,6.42,3.72,11.38v26.11h5.77v-26.78C593.85,168.03,592.12,163.13,588.66,159.76z M534.7,155.53v45.69h5.85v-45.69
	H534.7z M540.64,139.51c-0.84-0.81-1.84-1.21-3.02-1.21c-1.17,0-2.17,0.4-3.01,1.21c-0.83,0.81-1.25,1.83-1.25,3.05
	c0,1.23,0.42,2.26,1.25,3.1c0.84,0.84,1.84,1.25,3.01,1.25c1.18,0,2.18-0.41,3.02-1.25c0.83-0.84,1.25-1.87,1.25-3.1
	C541.89,141.34,541.47,140.32,540.64,139.51z M516.16,157.04c-2.65,1.56-4.61,3.76-5.9,6.61v-8.12h-5.85v45.69h5.85V175.7
	c0-5.36,1.29-9.18,3.85-11.47c2.57-2.28,5.97-3.43,10.21-3.43h1.59v-6.1C522.06,154.7,518.81,155.48,516.16,157.04z M489.93,156.37
	c-2.45-4.41-6-7.78-10.62-10.12c-4.63-2.35-10.19-3.52-16.66-3.52h-17.32v58.49h17.32c6.47,0,12.03-1.16,16.66-3.47
	c4.62-2.32,8.17-5.67,10.62-10.05c2.46-4.37,3.68-9.58,3.68-15.6C493.61,166.02,492.39,160.78,489.93,156.37z M481.27,189.96
	c-4.27,4.27-10.47,6.4-18.62,6.4h-11.46v-48.78h11.46c8.15,0,14.35,2.17,18.62,6.49c4.27,4.32,6.4,10.33,6.4,18.03
	C487.67,179.74,485.54,185.7,481.27,189.96z M402.16,188.92c1.51-2.07,3.01-4.41,4.52-7.03l6.36-10.96h-6.28l-5.35,8.95
	c-1.34,2.29-2.4,3.96-3.18,5.02l-19.25-19.49c-2.12-2.29-3.66-4.27-4.64-5.95c-0.98-1.67-1.46-3.4-1.46-5.18
	c0-2.23,0.79-4.06,2.38-5.48c1.59-1.43,3.67-2.14,6.23-2.14c2.4,0,4.4,0.73,5.99,2.18c1.59,1.45,2.35,3.43,2.3,5.94h5.86
	c0.16-3.85-1.07-6.97-3.69-9.37c-2.62-2.4-6.02-3.6-10.2-3.6c-4.47,0-8.04,1.16-10.71,3.47c-2.68,2.32-4.02,5.34-4.02,9.08
	c0,2.18,0.44,4.2,1.34,6.07c0.89,1.87,2.31,3.89,4.27,6.06c-4.52,1.73-7.95,4.13-10.3,7.2c-2.34,3.07-3.51,6.67-3.51,10.79
	c0,3.52,0.84,6.61,2.51,9.29c1.67,2.68,4.02,4.76,7.03,6.23c3.01,1.48,6.47,2.22,10.37,2.22c4.08,0,7.73-0.74,10.96-2.22
	c3.24-1.47,6.28-3.77,9.13-6.9l7.94,8.12h7.62L402.16,188.92z M387.56,195.19c-2.59,1.29-5.54,1.93-8.83,1.93
	c-2.73,0-5.16-0.56-7.28-1.68c-2.12-1.11-3.78-2.63-4.97-4.56c-1.21-1.92-1.8-4.11-1.8-6.56c0-6.53,3.87-11.22,11.63-14.06
	l18.66,18.91C392.62,191.9,390.15,193.91,387.56,195.19z M328.62,176.03c0-3.9-0.88-7.46-2.64-10.67c-1.76-3.2-4.27-5.76-7.53-7.65
	c-3.26-1.9-7.07-2.85-11.42-2.85c-4.35,0-8.23,0.95-11.63,2.85c-3.41,1.89-6.06,4.63-7.95,8.2c-1.9,3.57-2.85,7.72-2.85,12.46
	c0,4.75,0.97,8.89,2.89,12.43c1.92,3.54,4.59,6.28,7.99,8.2c3.4,1.93,7.25,2.89,11.55,2.89c5.52,0,10.11-1.41,13.76-4.23
	c3.65-2.81,6.04-6.45,7.16-10.92h-6.2c-0.83,3.13-2.55,5.61-5.14,7.45c-2.6,1.84-5.79,2.76-9.58,2.76c-2.9,0-5.58-0.63-8.04-1.88
	c-2.45-1.26-4.43-3.11-5.94-5.57c-1.5-2.45-2.34-5.41-2.51-8.87h37.91C328.56,179.58,328.62,178.04,328.62,176.03z M290.54,175.87
	c0.34-5.08,2.04-9.01,5.11-11.8s6.78-4.19,11.13-4.19c2.9,0,5.57,0.62,8.03,1.84c2.45,1.23,4.39,3.04,5.81,5.44
	c1.43,2.4,2.11,5.3,2.05,8.71H290.54z M269.12,159.76c-3.45-3.38-7.92-5.06-13.38-5.06c-3.46,0-6.56,0.74-9.29,2.21
	c-2.73,1.48-4.83,3.62-6.28,6.4v-7.78h-5.85v45.69h5.85v-24.94c0-5.41,1.31-9.51,3.94-12.3c2.62-2.79,6.13-4.18,10.54-4.18
	c4.29,0,7.68,1.31,10.17,3.93c2.48,2.62,3.72,6.42,3.72,11.38v26.11h5.77v-26.78C274.31,168.03,272.58,163.13,269.12,159.76z
	 M215.16,155.53v45.69h5.85v-45.69H215.16z M221.1,139.51c-0.84-0.81-1.84-1.21-3.01-1.21c-1.18,0-2.18,0.4-3.02,1.21
	c-0.83,0.81-1.25,1.83-1.25,3.05c0,1.23,0.42,2.26,1.25,3.1c0.84,0.84,1.84,1.25,3.02,1.25c1.17,0,2.17-0.41,3.01-1.25
	c0.83-0.84,1.25-1.87,1.25-3.1C222.35,141.34,221.93,140.32,221.1,139.51z M200.68,156.37c-2.45-4.41-6-7.78-10.62-10.12
	c-4.64-2.35-10.19-3.52-16.66-3.52h-17.32v58.49h17.32c6.47,0,12.02-1.16,16.66-3.47c4.62-2.32,8.17-5.67,10.62-10.05
	c2.46-4.37,3.68-9.58,3.68-15.6C204.36,166.02,203.14,160.78,200.68,156.37z M192.02,189.96c-4.27,4.27-10.47,6.4-18.62,6.4h-11.46
	v-48.78h11.46c8.15,0,14.35,2.17,18.62,6.49c4.27,4.32,6.4,10.33,6.4,18.03C198.42,179.74,196.29,185.7,192.02,189.96z"/>
</svg>
