<?xml version="1.0" encoding="utf-8"?>
<!-- Generator: Adobe Illustrator 25.3.1, SVG Export Plug-In . SVG Version: 6.00 Build 0)  -->
<svg version="1.1" id="Layer_1" xmlns="http://www.w3.org/2000/svg" xmlns:xlink="http://www.w3.org/1999/xlink" x="0px" y="0px"
	 viewBox="0 0 797.27 113.22" style="enable-background:new 0 0 797.27 113.22;" xml:space="preserve">
<style type="text/css">
	.st0{fill:#FFFFFF;}
	.st1{fill:none;}
	.st2{fill:#D3AA6A;}
</style>
<polygon class="st0" points="246.04,113.22 226.52,113.22 218.39,90.13 194.8,22.46 171.06,90.13 162.92,113.22 143.56,113.22 
	184.07,0 205.53,0 "/>
<polygon class="st0" points="522.42,113.22 502.9,113.22 494.77,90.13 471.18,22.46 447.43,90.13 439.3,113.22 419.94,113.22 
	460.45,0 481.91,0 "/>
<polygon class="st0" points="315.24,0 293.54,0 293.54,113.22 372.44,113.22 372.44,96.88 315.24,96.88 "/>
<polygon class="st0" points="658.84,113.22 622.67,56.93 658.19,0 632.56,0 610.5,37.96 586.01,0 559.89,0 596.07,56.12 
	560.38,113.22 586.01,113.22 608.23,75.1 632.72,113.22 "/>
<polygon class="st0" points="771.97,0 747.8,51.74 723.47,0 697.84,0 736.28,73.8 736.28,113.22 758.99,113.22 758.99,73.8 
	797.27,0 "/>
<path class="st1" d="M78.18,36.28c-7.62,3.55-16.51,8.18-25.85,13.57c-9.09,5.24-17.36,10.49-24.14,15.22
	c0.86,2.9,2.15,5.6,3.81,8.07c7.63-3.55,16.55-8.2,25.92-13.6c13.25-7.65,24.76-15.3,32.43-21.32l-9.14,1.82
	C80.31,38.7,79.29,37.45,78.18,36.28z"/>
<path class="st1" d="M75.65,33.88c-2.25-1.89-4.78-3.45-7.51-4.59c-3.53-1.5-7.4-2.33-11.53-2.33c-6.18,0-11.83,1.86-16.56,5.05
	c-4.75,3.21-8.52,7.76-10.76,13.06c-1.49,3.55-2.33,7.4-2.33,11.54c0,1.74,0.16,3.42,0.44,5.06c6.66-4.59,14.6-9.61,23.3-14.63
	C59.66,41.88,68.19,37.4,75.65,33.88z"/>
<path class="st0" d="M65.93,59.95v7.47h10.03c3.62,2.14,4.5,7.37,1.29,10.48c-1.25,1.22-2.61,2.33-4.07,3.3
	c-4.75,3.19-10.38,5.05-16.56,5.05c-4.13,0-8-0.82-11.54-2.33c-4.28-1.8-8.06-4.63-11.05-8.14c-6.11,2.86-11.47,5.07-15.68,6.44
	c-3.17,1.02-5.66,1.61-7.6,1.62c-0.65,0-1.25-0.06-1.85-0.27c-0.58-0.2-1.22-0.6-1.59-1.27c-0.25-0.43-0.36-0.93-0.36-1.38
	c0.03-1.12,0.49-2,1.12-2.96c0.64-0.95,1.52-1.97,2.63-3.09c2.21-2.23,5.34-4.87,9.22-7.81c2.25-1.7,4.78-3.51,7.5-5.39
	c-0.28-1.64-0.44-3.33-0.44-5.06c0-4.14,0.84-8,2.33-11.54c2.24-5.3,6.01-9.86,10.76-13.06c4.74-3.19,10.38-5.05,16.56-5.05
	c4.13,0,8,0.82,11.53,2.33c2.73,1.14,5.25,2.71,7.51,4.59c6.35-2.99,11.91-5.3,16.25-6.71c3.17-1.02,5.66-1.61,7.6-1.62
	c0.65,0,1.25,0.06,1.85,0.27c0.59,0.2,1.22,0.61,1.6,1.27l-1.41,0.81l1.41-0.81c0.25,0.44,0.36,0.93,0.36,1.38
	c-0.03,1.12-0.49,2-1.12,2.96c-0.64,0.95-1.52,1.97-2.63,3.09c-0.74,0.75-1.59,1.54-2.53,2.38l11.74-2.33
	C104.46,24.4,97.3,15.77,88.27,9.67C79.25,3.58,68.29-0.01,56.61,0c-7.79,0-15.26,1.59-22.04,4.45
	C24.39,8.77,15.78,15.91,9.67,24.95C3.57,33.97,0,44.93,0,56.62c0,7.77,1.59,15.25,4.45,22.04c4.31,10.17,11.47,18.79,20.49,24.89
	c9.02,6.1,19.98,9.69,31.67,9.67c7.77,0,15.26-1.59,22.04-4.45c10.17-4.31,18.79-11.46,24.89-20.49c6.11-9.02,9.69-16.65,9.69-28.32
	H65.93z"/>
<path class="st0" d="M92.91,30.26c-3,0.98-6.7,2.43-10.89,4.28c-1.23,0.54-2.52,1.13-3.84,1.75c1.1,1.17,2.12,2.42,3.02,3.75
	l9.14-1.82c1.42-1.11,2.72-2.18,3.86-3.17c2.43-2.1,4.2-3.92,5.12-5.2c0.31-0.42,0.5-0.78,0.61-1.03c-0.12-0.01-0.26-0.03-0.43-0.03
	C98.25,28.79,95.9,29.28,92.91,30.26z"/>
<path class="st0" d="M16.04,74.34c-2.43,2.1-4.2,3.92-5.12,5.2c-0.31,0.42-0.5,0.78-0.61,1.03c0.12,0.01,0.26,0.03,0.43,0.03
	c1.25,0.01,3.6-0.48,6.6-1.46c3-0.98,6.7-2.43,10.89-4.28c1.21-0.54,2.48-1.12,3.77-1.72c-1.66-2.47-2.95-5.18-3.81-8.07
	C23.26,68.51,19.12,71.67,16.04,74.34z"/>
<path class="st0" d="M57.92,59.54C48.56,64.95,39.63,69.6,32,73.15c0.01,0.01,0.01,0.02,0.02,0.03c0.61,0.91,1.29,1.77,2,2.61
	c7.59-3.56,16.34-8.14,25.52-13.43c12.25-7.08,23.03-14.15,30.8-20.02c2.59-1.96,4.83-3.78,6.69-5.44l-6.69,1.33
	C82.68,44.24,71.17,51.9,57.92,59.54z"/>
<polygon class="st2" points="9.73,80.91 9.73,80.91 9.7,80.93 10.19,80.93 10.11,80.69 "/>
<polygon class="st2" points="9.73,80.91 9.7,80.93 9.73,80.91 "/>
<polygon class="st2" points="10.11,80.69 10.11,80.69 10.11,80.69 "/>
<rect x="9.92" y="80.58" transform="matrix(0.5547 -0.8321 0.8321 0.5547 -62.8115 44.2355)" class="st2" width="0" height="0.44"/>
<rect x="9.7" y="80.8" transform="matrix(0.7071 -0.7071 0.7071 0.7071 -54.2279 30.6814)" class="st2" width="0.44" height="0"/>
<path class="st2" d="M9.94,80.5l0.17,0.19l0,0l0.07,0.24l0-0.01c0-0.04,0.04-0.17,0.12-0.34c-0.16-0.02-0.29-0.04-0.33-0.06
	L9.94,80.5z"/>
<polygon class="st2" points="10.11,80.69 10.11,80.69 9.94,80.5 9.73,80.91 10.11,80.69 "/>
<path d="M78.18,36.28c1.32-0.61,2.6-1.2,3.84-1.75c4.19-1.85,7.88-3.3,10.89-4.28c2.99-0.98,5.34-1.47,6.6-1.46
	c0.18,0,0.31,0.01,0.43,0.03c0.08-0.18,0.12-0.31,0.12-0.34l0-0.01l0.49,0l-0.41,0.24l1.41-0.81l1.41-0.81
	c-0.38-0.66-1.01-1.07-1.6-1.27c-0.6-0.21-1.2-0.27-1.85-0.27c-1.94,0.01-4.43,0.6-7.6,1.62c-4.34,1.42-9.91,3.72-16.25,6.71
	C76.54,34.63,77.38,35.44,78.18,36.28z"/>
<polygon class="st2" points="100.55,28.47 100.06,28.47 100.13,28.71 "/>
<path class="st2" d="M100.06,28.47L100.06,28.47c0,0.04-0.04,0.17-0.12,0.35c0.16,0.02,0.29,0.04,0.33,0.06l0.03,0.01l-0.17-0.18
	l0.38-0.22l0,0l1.03-0.59l-1.41,0.81L100.06,28.47z"/>
<path d="M32,73.15c-1.29,0.6-2.56,1.18-3.77,1.72c-4.19,1.85-7.88,3.3-10.89,4.28c-2.99,0.98-5.35,1.47-6.6,1.46
	c-0.18,0-0.31-0.01-0.43-0.03c-0.08,0.18-0.12,0.31-0.12,0.34l0,0.01H9.7l0.03-0.02l0.21-0.41l0.03,0.01
	c0.05,0.02,0.17,0.04,0.33,0.06c0.11-0.25,0.3-0.61,0.61-1.03c0.92-1.28,2.69-3.1,5.12-5.2c3.08-2.67,7.23-5.83,12.16-9.27
	c-0.33-1.11-0.59-2.24-0.79-3.4c-2.72,1.87-5.25,3.69-7.5,5.39c-3.88,2.94-7.01,5.58-9.22,7.81C9.58,76,8.7,77.02,8.06,77.97
	c-0.63,0.96-1.1,1.84-1.12,2.96c0,0.45,0.11,0.95,0.36,1.38c0.38,0.66,1.01,1.07,1.59,1.27c0.6,0.21,1.2,0.27,1.85,0.27
	c1.94-0.01,4.43-0.6,7.6-1.62c4.21-1.37,9.57-3.58,15.68-6.44c-0.71-0.84-1.39-1.7-2-2.61C32.02,73.17,32.01,73.16,32,73.15z"/>
<path d="M102.19,31.43c0.63-0.96,1.1-1.83,1.12-2.96c0-0.45-0.1-0.95-0.36-1.38l-1.41,0.81l-1.03,0.59l-0.21,0.4l-0.03-0.01
	c-0.05-0.02-0.17-0.04-0.33-0.06c-0.11,0.25-0.3,0.61-0.61,1.03c-0.92,1.28-2.69,3.1-5.12,5.2c-1.14,0.99-2.44,2.05-3.86,3.17
	l6.69-1.33c0.94-0.83,1.79-1.63,2.53-2.38C100.66,33.4,101.54,32.38,102.19,31.43z"/>
<polygon class="st2" points="100.14,28.71 100.51,28.49 100.51,28.49 "/>
<polygon class="st2" points="100.31,28.9 100.51,28.49 100.14,28.71 "/>
<polygon points="16.93,53.19 14.49,53.92 13.7,56.34 12.25,54.24 9.7,54.24 11.25,52.21 10.47,49.79 12.87,50.64 14.94,49.14 
	14.87,51.69 "/>
<polygon class="st0" points="53.76,53.63 51.32,52.89 49.33,54.49 49.27,51.94 47.14,50.54 49.54,49.7 50.21,47.24 51.76,49.27 
	54.31,49.14 52.86,51.24 "/>
<polygon points="79.9,28.31 77.45,27.58 75.46,29.18 75.4,26.63 73.27,25.23 75.68,24.39 76.35,21.92 77.89,23.95 80.44,23.83 
	78.99,25.93 "/>
</svg>
